HIERARCHY
ROOT Hips
{
	OFFSET 50.088902 7.043302 49.397301
	CHANNELS 6 Xposition Yposition Zposition Xrotation Yrotation Zrotation
	JOINT spine
	{
		OFFSET 0.000000 -0.359108 6.244789
		CHANNELS 3 Xrotation Yrotation Zrotation
		JOINT spine1
		{
			OFFSET 0.000000 -0.000001 9.069412
			CHANNELS 3 Xrotation Yrotation Zrotation
			JOINT spine2
			{
				OFFSET 0.000000 -0.000001 8.690140
				CHANNELS 3 Xrotation Yrotation Zrotation
				JOINT Neck
				{
					OFFSET 0.000000 -1.063724 22.311203
					CHANNELS 3 Xrotation Yrotation Zrotation
					JOINT Head
					{
						OFFSET 0.000000 -0.000001 6.740807
						CHANNELS 3 Xrotation Yrotation Zrotation
						End Site
						{
							OFFSET 0.000000 5.380968 16.316498
						}
					}
				}
				JOINT RightShoulder
				{
					OFFSET -3.659161 0.509512 9.384682
					CHANNELS 3 Xrotation Yrotation Zrotation
					JOINT RightArm
					{
						OFFSET 0.000000 -0.000002 12.308899
						CHANNELS 3 Xrotation Yrotation Zrotation
						JOINT RightArmRoll
						{
							OFFSET 0.000000 -0.000001 6.213753
							CHANNELS 3 Xrotation Yrotation Zrotation
							JOINT RightForeArm
							{
								OFFSET 0.000000 -0.000003 18.098495
								CHANNELS 3 Xrotation Yrotation Zrotation
								JOINT RightForeArmRoll
								{
									OFFSET 0.000000 -0.000001 6.972801
									CHANNELS 3 Xrotation Yrotation Zrotation
									JOINT RightHand
									{
										OFFSET 0.000000 -0.000002 13.992897
										CHANNELS 3 Xrotation Yrotation Zrotation
										End Site
										{
											OFFSET 0.000000 0.000000 0.100006
										}
									}
								}
							}
						}
					}
				}
				JOINT LeftShoulder
				{
					OFFSET 3.659161 0.509512 9.384682
					CHANNELS 3 Xrotation Yrotation Zrotation
					JOINT LeftArm
					{
						OFFSET 0.000000 -0.000002 12.308899
						CHANNELS 3 Xrotation Yrotation Zrotation
						JOINT LeftArmRoll
						{
							OFFSET 0.000000 -0.000001 6.213753
							CHANNELS 3 Xrotation Yrotation Zrotation
							JOINT LeftForeArm
							{
								OFFSET 0.000000 -0.000003 18.098495
								CHANNELS 3 Xrotation Yrotation Zrotation
								JOINT LeftForeArmRoll
								{
									OFFSET 0.000000 -0.000001 6.972794
									CHANNELS 3 Xrotation Yrotation Zrotation
									JOINT LeftHand
									{
										OFFSET 0.000000 -0.000002 13.992905
										CHANNELS 3 Xrotation Yrotation Zrotation
										End Site
										{
											OFFSET 0.000000 0.000000 0.100006
										}
									}
								}
							}
						}
					}
				}
			}
		}
	}
	JOINT RightUpLeg
	{
		OFFSET -5.535149 0.851454 -1.014999
		CHANNELS 3 Xrotation Yrotation Zrotation
		JOINT RightUpLegRoll
		{
			OFFSET 0.000000 -0.000002 16.407501
			CHANNELS 3 Xrotation Yrotation Zrotation
			JOINT RightLeg
			{
				OFFSET 0.000000 0.000003 -20.318100
				CHANNELS 3 Xrotation Yrotation Zrotation
				JOINT RightLegRoll
				{
					OFFSET 0.000000 -0.000003 20.384598
					CHANNELS 3 Xrotation Yrotation Zrotation
					JOINT RightFoot
					{
						OFFSET 0.000000 -0.000003 16.966805
						CHANNELS 3 Xrotation Yrotation Zrotation
						JOINT RightToeBase
						{
							OFFSET 0.000000 -0.000002 14.183403
							CHANNELS 3 Xrotation Yrotation Zrotation
							End Site
							{
								OFFSET 0.006012 0.791744 6.868896
							}
						}
					}
				}
			}
		}
	}
	JOINT LeftUpLeg
	{
		OFFSET 5.535149 0.851454 -1.014999
		CHANNELS 3 Xrotation Yrotation Zrotation
		JOINT LeftUpLegRoll
		{
			OFFSET 0.000000 -0.000002 16.407600
			CHANNELS 3 Xrotation Yrotation Zrotation
			JOINT LeftLeg
			{
				OFFSET 0.000000 -0.000003 20.318100
				CHANNELS 3 Xrotation Yrotation Zrotation
				JOINT LeftLegRoll
				{
					OFFSET 0.000000 -0.000003 20.573097
					CHANNELS 3 Xrotation Yrotation Zrotation
					JOINT LeftFoot
					{
						OFFSET 0.000000 -0.000003 16.778297
						CHANNELS 3 Xrotation Yrotation Zrotation
						JOINT LeftToeBase
						{
							OFFSET 0.000000 -0.000002 14.183395
							CHANNELS 3 Xrotation Yrotation Zrotation
							End Site
							{
								OFFSET -0.026943 0.791745 6.868896
							}
						}
					}
				}
			}
		}
	}
}
MOTION
Frames: 12
Frame Time: 0.041667
49.334000 -37.411705 84.218102 -0.792179 0.365994 -3.113470 -1.709414 0.212756 -0.065692 0.584212 0.426603 -0.127442 2.229301 0.425045 -0.132541 11.691513 -6.461713 -1.563816 7.141913 2.631206 -1.242436 -9.067716 -71.713721 -11.438101 -53.723990 -111.798012 -43.186176 -0.000001 0.000002 0.000010 6.902048 -10.646877 0.211181 -0.000002 0.000008 -3.000001 -5.000220 -7.998745 0.000173 -17.273043 61.137460 20.418717 -25.065951 114.722330 7.491855 -0.000000 -0.000000 -0.000001 14.652617 1.258518 0.319677 -0.000002 0.000007 3.000001 -5.000178 7.999950 -0.000026 -5.399545 -179.478329 0.619828 179.999991 -0.000005 -1.045000 169.673633 -3.078417 -0.952612 -0.000001 0.000004 0.194498 69.370311 7.393315 0.792977 25.456878 -7.354308 -0.000006 -1.312211 179.110236 -1.727889 -0.000005 -0.000004 -1.131620 -13.903434 1.712272 1.061060 0.000000 -0.000000 -0.351158 74.112586 -6.882246 -1.755176 27.640502 7.359472 -0.274647 
49.336094 -37.404709 84.211014 -0.778035 0.365668 -3.115585 -1.709605 0.213181 -0.065907 0.583837 0.427248 -0.128212 2.228932 0.425681 -0.133319 11.733003 -6.466638 -1.571763 7.133778 2.606474 -1.248314 -9.032210 -71.699344 -11.398068 -53.570000 -111.744395 -42.942998 0.000001 0.000002 0.000009 6.841838 -10.585316 0.198185 -0.000001 0.000008 -3.000001 -5.000221 -7.998744 0.000172 -17.281726 61.136825 20.428872 -24.956797 114.713683 7.312232 0.000001 -0.000000 0.000000 14.580577 1.200920 0.328086 -0.000002 0.000007 3.000001 -5.000174 7.999951 -0.000028 -5.448816 -179.481348 0.617534 179.999991 -0.000005 -1.044003 169.639305 -3.086938 -0.953081 -0.000002 0.000004 0.195564 69.391273 7.397220 0.780793 25.456880 -7.354305 -0.000007 -1.335386 179.112244 -1.722177 -0.000005 -0.000004 -1.131510 -13.904237 1.712267 1.061801 0.000001 -0.000000 -0.351158 74.111644 -6.883093 -1.753352 27.633427 7.359470 -0.274626 
49.359196 -37.394108 84.212410 -0.764010 0.365278 -3.117519 -1.709825 0.213593 -0.066113 0.583390 0.427852 -0.128988 2.228482 0.426275 -0.134103 11.774476 -6.470882 -1.578793 7.126803 2.582411 -1.253510 -8.993973 -71.684379 -11.354996 -53.415450 -111.690989 -42.697155 -0.000001 0.000001 0.000009 6.779430 -10.521985 0.184905 -0.000000 0.000008 -3.000000 -5.000220 -7.998744 0.000172 -17.289340 61.137153 20.437794 -24.849811 114.704435 7.132060 0.000001 0.000001 0.000002 14.507846 1.141038 0.336632 -0.000001 0.000006 3.000003 -5.000175 7.999949 -0.000026 -5.499105 -179.485378 0.615539 179.999991 -0.000005 -1.044003 169.603255 -3.096419 -0.953819 -0.000002 0.000004 0.196670 69.413150 7.401305 0.767879 25.456880 -7.354307 -0.000007 -1.358319 179.113242 -1.716675 -0.000005 -0.000004 -1.131420 -13.905139 1.712561 1.062564 0.000001 -0.000000 -0.351158 74.111152 -6.884006 -1.751110 27.626049 7.359471 -0.274609 
49.355198 -37.386509 84.223511 -0.750073 0.364841 -3.119314 -1.710083 0.213994 -0.066314 0.582891 0.428426 -0.129771 2.227982 0.426840 -0.134892 11.815941 -6.474645 -1.585178 7.120646 2.558808 -1.258229 -8.953908 -71.669100 -11.309881 -53.257946 -111.638274 -42.446798 -0.000001 0.000002 0.000011 6.715497 -10.457370 0.171483 0.000001 0.000008 -3.000000 -5.000218 -7.998745 0.000173 -17.296353 61.138389 20.445995 -24.743624 114.695419 6.950710 0.000001 0.000000 -0.000001 14.434618 1.079549 0.345218 -0.000002 0.000005 2.999999 -5.000176 7.999951 -0.000027 -5.550111 -179.488410 0.613592 179.999991 -0.000005 -1.043006 169.565894 -3.106865 -0.953823 -0.000002 0.000004 0.197805 69.435601 7.405488 0.754739 25.456878 -7.354305 -0.000007 -1.381097 179.115250 -1.711360 -0.000005 -0.000004 -1.131330 -13.905942 1.713088 1.063342 0.000002 -0.000000 -0.351158 74.110899 -6.884951 -1.748958 27.618469 7.359478 -0.274601 
49.346401 -37.365303 84.220001 -0.736186 0.364378 -3.121028 -1.710345 0.214389 -0.066511 0.582364 0.428983 -0.130555 2.227452 0.427388 -0.135683 11.857400 -6.478145 -1.591190 7.114951 2.535481 -1.262677 -8.912813 -71.653664 -11.263610 -53.097877 -111.586365 -42.192940 0.000000 0.000001 0.000010 6.650710 -10.392146 0.158062 0.000001 0.000008 -3.000000 -5.000220 -7.998746 0.000172 -17.302898 61.139981 20.453650 -24.637597 114.686526 6.768602 0.000000 0.000000 -0.000000 14.361115 1.017139 0.353762 0.000001 0.000007 3.000001 -5.000176 7.999950 -0.000025 -5.601534 -179.491443 0.611729 179.999991 -0.000005 -1.043006 169.527945 -3.116319 -0.954702 -0.000001 0.000004 0.198955 69.458413 7.409764 0.741393 25.456878 -7.354305 -0.000007 -1.403793 179.116260 -1.706124 -0.000005 -0.000004 -1.131260 -13.906847 1.713732 1.064129 0.000000 -0.000000 -0.351158 74.110790 -6.885966 -1.746507 27.610895 7.359473 -0.274607 
49.351799 -37.356007 84.225601 -0.722309 0.363908 -3.122713 -1.710615 0.214784 -0.066707 0.581829 0.429537 -0.131341 2.226922 0.427932 -0.136475 11.898756 -6.481576 -1.597122 7.109368 2.512211 -1.267061 -8.871484 -71.638125 -11.217087 -52.937019 -111.534646 -41.938174 0.000002 0.000002 0.000010 6.585741 -10.326598 0.144738 -0.000003 0.000008 -3.000001 -5.000223 -7.998744 0.000172 -17.309421 61.141791 20.461292 -24.531777 114.677742 6.586387 0.000000 0.000000 -0.000002 14.287628 0.954473 0.362169 0.000002 0.000006 2.999999 -5.000178 7.999950 -0.000024 -5.653053 -179.495459 0.609989 179.999991 -0.000005 -1.041995 169.489778 -3.126748 -0.955775 -0.000002 0.000004 0.200110 69.481315 7.413983 0.728028 25.456873 -7.354305 -0.000007 -1.426465 179.118269 -1.700934 -0.000004 -0.000004 -1.131180 -13.907653 1.714415 1.064918 0.000000 -0.000000 -0.351158 74.110660 -6.886984 -1.744056 27.603216 7.359466 -0.274597 
49.354095 -37.341412 84.227707 -0.708411 0.363450 -3.124446 -1.710873 0.215181 -0.066905 0.581309 0.430098 -0.132124 2.226402 0.428484 -0.137266 11.940221 -6.485176 -1.603221 7.103554 2.488823 -1.271586 -8.830822 -71.622750 -11.171286 -52.773224 -111.483604 -41.680826 -0.000000 0.000002 0.000010 6.521251 -10.261510 0.131653 0.000000 0.000008 -3.000000 -5.000222 -7.998744 0.000172 -17.316082 61.143280 20.469085 -24.426566 114.668098 6.405500 -0.000000 -0.000000 0.000001 14.214259 0.892244 0.370365 -0.000000 0.000007 2.999998 -5.000175 7.999950 -0.000026 -5.704367 -179.498492 0.608120 179.999991 -0.000005 -1.041994 169.451925 -3.136197 -0.956675 -0.000002 0.000004 0.201256 69.504005 7.418213 0.714677 25.456877 -7.354305 -0.000007 -1.449173 179.119279 -1.695680 -0.000004 -0.000004 -1.131100 -13.908458 1.715031 1.065700 0.000000 -0.000000 -0.351158 74.110530 -6.887944 -1.741800 27.595537 7.359470 -0.274581 
49.355492 -37.334812 84.225998 -0.694449 0.363022 -3.126280 -1.711110 0.215585 -0.067107 0.580825 0.430681 -0.132905 2.225922 0.429057 -0.138054 11.981591 -6.489126 -1.609779 7.097171 2.465091 -1.276464 -8.791541 -71.607512 -11.127031 -52.610673 -111.432125 -41.426050 -0.000001 0.000002 0.000010 6.457905 -10.197262 0.118915 -0.000001 0.000008 -3.000001 -5.000217 -7.998744 0.000172 -17.323265 61.144284 20.477486 -24.318952 114.660257 6.223279 0.000000 0.000000 0.000001 14.141220 0.831132 0.378270 -0.000001 0.000006 3.000001 -5.000177 7.999950 -0.000025 -5.755166 -179.502508 0.606255 179.999991 -0.000005 -1.040997 169.414974 -3.145651 -0.956529 -0.000002 0.000004 0.202383 69.526353 7.422307 0.701625 25.456880 -7.354306 -0.000007 -1.471994 179.120290 -1.690305 -0.000005 -0.000004 -1.131010 -13.909263 1.715491 1.066473 0.000001 -0.000000 -0.351158 74.110182 -6.888925 -1.739459 27.588049 7.359476 -0.274581 
49.343494 -37.314705 84.230209 -0.680389 0.362646 -3.128264 -1.711331 0.216001 -0.067315 0.580399 0.431297 -0.133680 2.225493 0.429663 -0.138837 12.023079 -6.493665 -1.617051 7.089857 2.440837 -1.281901 -8.754493 -71.592670 -11.085254 -52.447366 -111.380810 -41.172298 -0.000002 0.000001 0.000009 6.396365 -10.134349 0.106606 -0.000000 0.000008 -2.999999 -5.000220 -7.998745 0.000171 -17.331238 61.144352 20.486814 -24.210425 114.652375 6.042434 -0.000001 0.000000 0.000001 14.068804 0.771817 0.385814 -0.000001 0.000006 3.000000 -5.000174 7.999949 -0.000029 -5.805155 -179.505554 0.604141 179.999991 -0.000005 -1.040000 169.379416 -3.155128 -0.957317 -0.000002 0.000004 0.203477 69.547909 7.426296 0.689003 25.456878 -7.354306 -0.000007 -1.495007 179.122298 -1.684764 -0.000005 -0.000004 -1.130910 -13.910166 1.715697 1.067232 0.000001 -0.000000 -0.351158 74.109567 -6.889797 -1.737417 27.580784 7.359471 -0.274567 
49.344494 -37.302509 84.208511 -0.666197 0.362338 -3.130467 -1.711502 0.216431 -0.067533 0.580054 0.431960 -0.134447 2.225143 0.430317 -0.139611 12.064686 -6.498979 -1.625306 7.081264 2.415853 -1.288106 -8.720545 -71.578388 -11.046935 -52.283117 -111.329584 -40.920059 -0.000001 0.000002 0.000010 6.337306 -10.073350 0.094850 -0.000000 0.000008 -3.000000 -5.000221 -7.998744 0.000172 -17.340249 61.143170 20.497358 -24.098883 114.646173 5.861300 0.000000 0.000001 0.000001 13.997211 0.714981 0.392918 -0.000001 0.000006 2.999999 -5.000177 7.999949 -0.000027 -5.854005 -179.508573 0.601816 179.999991 -0.000005 -1.040000 169.345675 -3.164609 -0.958029 -0.000002 0.000004 0.204526 69.568571 7.430109 0.676709 25.456877 -7.354306 -0.000008 -1.518271 179.123309 -1.678944 -0.000005 -0.000004 -1.130800 -13.910963 1.715556 1.067962 0.000000 -0.000000 -0.351158 74.108488 -6.890601 -1.735698 27.573805 7.359469 -0.274545 
49.342495 -37.294910 84.214508 -0.651833 0.362117 -3.132941 -1.711623 0.216881 -0.067762 0.579811 0.432681 -0.135204 2.224903 0.431030 -0.140377 12.106217 -6.505317 -1.634843 7.071050 2.389935 -1.295293 -8.690390 -71.564728 -11.012843 -52.120118 -111.277913 -40.672277 0.000001 0.000002 0.000009 6.281390 -10.014750 0.083749 -0.000002 0.000008 -3.000001 -5.000219 -7.998745 0.000172 -17.350677 61.140459 20.509562 -23.984843 114.640723 5.681547 0.000000 0.000000 0.000001 13.926548 0.661309 0.399536 0.000000 0.000008 3.000001 -5.000175 7.999950 -0.000027 -5.901425 -179.512589 0.599322 179.999991 -0.000005 -1.039003 169.314420 -3.173117 -0.959410 -0.000002 0.000004 0.205518 69.587859 7.433670 0.665360 25.456878 -7.354306 -0.000007 -1.541844 179.125317 -1.672817 -0.000005 -0.000004 -1.130650 -13.911859 1.714977 1.068667 0.000001 -0.000000 -0.351158 74.106931 -6.891316 -1.734293 27.567137 7.359476 -0.274505 
49.342796 -37.284901 84.233597 -0.637263 0.362002 -3.135754 -1.711682 0.217355 -0.068006 0.579690 0.433473 -0.135949 2.224784 0.431813 -0.141132 12.147882 -6.512858 -1.645905 7.058872 2.362894 -1.303666 -8.664927 -71.551866 -10.983974 -51.958195 -111.225717 -40.429457 0.000000 0.000002 0.000009 6.229274 -9.959145 0.073394 0.000001 0.000008 -3.000000 -5.000219 -7.998745 0.000172 -17.362739 61.135780 20.523677 -23.867183 114.636871 5.502569 0.000001 0.000000 0.000000 13.857007 0.611482 0.405588 0.000001 0.000006 3.000001 -5.000180 7.999950 -0.000027 -5.947103 -179.515622 0.596397 179.999991 -0.000005 -1.039003 169.286102 -3.180688 -0.959471 -0.000002 0.000003 0.206441 69.605775 7.436946 0.654651 25.456880 -7.354306 -0.000008 -1.565795 179.126315 -1.666259 -0.000004 -0.000004 -1.130490 -13.912752 1.713863 1.069335 0.000001 -0.000000 -0.351158 74.104670 -6.891908 -1.733315 27.560971 7.359475 -0.274454 
